<svg xmlns="http://www.w3.org/2000/svg" width="20" height="20" viewBox="0 0 20 20" fill="none">
  <g clip-path="url(#clip0_33_53272)">
    <path d="M15.8333 2.49967H12.35C12 1.53301 11.0833 0.833008 10 0.833008C8.91667 0.833008 8 1.53301 7.65 2.49967H4.16667C3.25 2.49967 2.5 3.24967 2.5 4.16634V15.833C2.5 16.7497 3.25 17.4997 4.16667 17.4997H15.8333C16.75 17.4997 17.5 16.7497 17.5 15.833V4.16634C17.5 3.24967 16.75 2.49967 15.8333 2.49967ZM10 2.49967C10.4583 2.49967 10.8333 2.87467 10.8333 3.33301C10.8333 3.79134 10.4583 4.16634 10 4.16634C9.54167 4.16634 9.16667 3.79134 9.16667 3.33301C9.16667 2.87467 9.54167 2.49967 10 2.49967ZM11.6667 14.1663H5.83333V12.4997H11.6667V14.1663ZM14.1667 10.833H5.83333V9.16634H14.1667V10.833ZM14.1667 7.49967H5.83333V5.83301H14.1667V7.49967Z" fill="white"/>
  </g>
  <defs>
    <clipPath id="clip0_33_53272">
      <rect width="20" height="20" fill="white"/>
    </clipPath>
  </defs>
</svg>