<svg xmlns="http://www.w3.org/2000/svg" width="20" height="20" viewBox="0 0 20 20" fill="none">
  <g clip-path="url(#clip0_33_53295)">
    <path d="M13.3334 9.16699C14.7167 9.16699 15.825 8.05033 15.825 6.66699C15.825 5.28366 14.7167 4.16699 13.3334 4.16699C11.95 4.16699 10.8334 5.28366 10.8334 6.66699C10.8334 8.05033 11.95 9.16699 13.3334 9.16699ZM6.66671 9.16699C8.05004 9.16699 9.15837 8.05033 9.15837 6.66699C9.15837 5.28366 8.05004 4.16699 6.66671 4.16699C5.28337 4.16699 4.16671 5.28366 4.16671 6.66699C4.16671 8.05033 5.28337 9.16699 6.66671 9.16699ZM6.66671 10.8337C4.72504 10.8337 0.833374 11.8087 0.833374 13.7503V15.8337H12.5V13.7503C12.5 11.8087 8.60837 10.8337 6.66671 10.8337ZM13.3334 10.8337C13.0917 10.8337 12.8167 10.8503 12.525 10.8753C13.4917 11.5753 14.1667 12.517 14.1667 13.7503V15.8337H19.1667V13.7503C19.1667 11.8087 15.275 10.8337 13.3334 10.8337Z" fill="white"/>
  </g>
  <defs>
    <clipPath id="clip0_33_53295">
      <rect width="20" height="20" fill="white"/>
    </clipPath>
  </defs>
</svg>